<?xml version="1.0" encoding="UTF-8"?><svg id="Layer_1" xmlns="http://www.w3.org/2000/svg" viewBox="0 0 120 120"><path d="M120,60c0,33.14-26.86,60-60,60S0,93.14,0,60,26.86,0,60,0s60,26.86,60,60Z" fill="#868eb8"/><path d="M60,112.63c-.63,0-1.22-.08-1.76-.24s-1.04-.46-1.49-.89c-11.3-10.52-19.68-20.63-25.15-30.34-5.47-9.71-8.2-19.33-8.2-28.87,0-7.37,1.11-13.85,3.32-19.44,2.21-5.59,5.08-10.28,8.61-14.07,3.52-3.8,7.46-6.64,11.79-8.54s8.63-2.85,12.88-2.85,8.54,.95,12.88,2.85,8.27,4.74,11.79,8.54c3.52,3.8,6.39,8.49,8.61,14.07,2.21,5.59,3.32,12.07,3.32,19.44,0,9.54-2.73,19.17-8.2,28.87-5.47,9.71-13.85,19.82-25.15,30.34-.45,.43-.95,.73-1.49,.89s-1.13,.24-1.76,.24Zm0-40.45c7.45,0,13.8-2.63,19.07-7.9,5.26-5.26,7.9-11.62,7.9-19.07s-2.63-13.8-7.9-19.07c-5.26-5.26-11.62-7.9-19.07-7.9s-13.8,2.63-19.07,7.9c-5.26,5.26-7.9,11.62-7.9,19.07s2.63,13.8,7.9,19.07c5.26,5.26,11.62,7.9,19.07,7.9Z" fill="#fff"/><g><path d="M55.9,56.19h-11.75v-3.81h3.13v-14.19h-3.13v-3.81h11.75v3.81h-3.13v14.19h3.13v3.81Z" fill="#fff"/><path d="M79.32,41.26c.28,6.19-6.09,8.47-11.31,7.79v7.13h-5.48v-21.81c5.68,.23,17.06-1.9,16.79,6.88Zm-5.62,.13c-.02-3.11-3.32-3.01-5.68-2.94v6.53c2.59,.21,6.01-.22,5.68-3.59Z" fill="#fff"/></g></svg>